{"title":"The Stroller Strategy (2012) ENG SUBS DVDRip AC3 x264-pong","uid":15173031,"size":827867957,"categoryP":"video","categoryS":"movies","magnet":"?xt=urn:btih:30f20cebbacd289b721cb33e268652348e8c4e0f&amp;dn=The+Stroller+Strategy+%282012%29+ENG+SUBS+DVDRip+AC3+x264-pong&amp;tr=udp%3A%2F%2Ftracker.leechers-paradise.org%3A6969&amp;tr=udp%3A%2F%2Fzer0day.ch%3A1337&amp;tr=udp%3A%2F%2Fopen.demonii.com%3A1337&amp;tr=udp%3A%2F%2Ftracker.coppersurfer.tk%3A6969&amp;tr=udp%3A%2F%2Fexodus.desync.com%3A6969","seeders":0,"leechers":1,"uploader":"Pongydog","files":1,"time":1467404547,"description":"http://www.imdb.com/title/tt2520516/\r\n\r\n\r\nParisian Thomas Platz is suddenly made the guardian of a baby - then pretends to be its real father in order to win back Marie, the girlfriend who dumped him a year before. Stuck between ... See full summary » \r\n\r\nDirector: Clément Michel  \r\n\r\nWriters: Clément Michel (scenario and dialogue),  Louis-Paul Desanges (collaboration)  \r\n\r\nStars: Raphaël Personnaz,  Charlotte Le Bon,  Jérôme Commandeur  \r\n\r\nGeneral\r\nComplete name                            : C:OPTD2621VIDEO_TSThe Stroller Strategy (2012) ENG SUBS DVDRip AC3 x264-pong.mp4\r\nFormat                                   : MPEG-4\r\nFormat profile                           : Base Media / Version 2\r\nCodec ID                                 : mp42 (isom/iso2/avc1/mp41)\r\nFile size                                : 790 MiB\r\nDuration                                 : 1h 25mn\r\nOverall bit rate                         : 1 288 Kbps\r\nEncoded date                             : UTC 2016-06-30 03:27:09\r\nTagged date                              : UTC 2016-06-30 03:27:09\r\nWriting application                      : HandBrake 0.10.5 2016021100\r\n\r\nVideo\r\nID                                       : 1\r\nFormat                                   : AVC\r\nFormat/Info                              : Advanced Video Codec\r\nFormat profile                           :   \r\nFormat settings, CABAC                   : Yes\r\nFormat settings, ReFrames                : 16 frames\r\nCodec ID                                 : avc1\r\nCodec ID/Info                            : Advanced Video Coding\r\nDuration                                 : 1h 25mn\r\nBit rate                                 : 900 Kbps\r\nWidth                                    : 720 pixels\r\nHeight                                   : 576 pixels\r\nDisplay aspect ratio                     : 16:9\r\nFrame rate mode                          : Constant\r\nFrame rate                               : 25.000 fps\r\nStandard                                 : PAL\r\nColor space                              : YUV\r\nChroma subsampling                       : 4:2:0\r\nBit depth                                : 8 bits\r\nScan type                                : Progressive\r\nBits/(Pixel*Frame)                       : 0.087\r\nStream size                              : 552 MiB (70%)\r\nWriting library                          : x264 core 142 r2479 dd79a61\r\nEncoding settings                        : cabac=1 / ref=16 / deblock=1:-1:-1 / analyse=0x1:0x131 / me=umh / subme=10 / psy=1 / psy_rd=1.00:0.15 / mixed_ref=1 / me_range=24 / chroma_me=1 / trellis=2 / 8x8dct=0 / cqm=0 / deadzone=21,11 / fast_pskip=1 / chroma_qp_offset=-3 / threads=3 / lookahead_threads=1 / sliced_threads=0 / nr=0 / decimate=1 / interlaced=0 / bluray_compat=0 / constrained_intra=0 / bframes=8 / b_pyramid=2 / b_adapt=2 / b_bias=0 / direct=3 / weightb=1 / open_gop=0 / weightp=2 / keyint=250 / keyint_min=25 / scenecut=40 / intra_refresh=0 / rc_lookahead=60 / rc=2pass / mbtree=1 / bitrate=900 / ratetol=1.0 / qcomp=0.60 / qpmin=0 / qpmax=69 / qpstep=4 / cplxblur=20.0 / qblur=0.5 / vbv_maxrate=50000 / vbv_bufsize=62500 / nal_hrd=none / filler=0 / ip_ratio=1.40 / aq=1:1.00\r\nEncoded date                             : UTC 2016-06-30 03:27:09\r\nTagged date                              : UTC 2016-06-30 03:27:09\r\nColor range                              : Limited\r\nColor primaries                          : BT.601 PAL\r\nTransfer characteristics                 : BT.709\r\nMatrix coefficients                      : BT.601\r\n\r\nAudio\r\nID                                       : 2\r\nFormat                                   : AC-3\r\nFormat/Info                              : Audio Coding 3\r\nMode extension                           : CM (complete main)\r\nFormat settings, Endianness              : Big\r\nCodec ID                                 : ac-3\r\nDuration                                 : 1h 25mn\r\nBit rate mode                            : Constant\r\nBit rate                                 : 384 Kbps\r\nChannel(s)                               : 6 channels\r\nChannel positions                        : Front: L C R, Side: L R, LFE\r\nSampling rate                            : 48.0 KHz\r\nFrame rate                               : 31.250 fps (1536 spf)\r\nBit depth                                : 16 bits\r\nCompression mode                         : Lossy\r\nStream size                              : 235 MiB (30%)\r\nTitle                                    : Surround / Surround\r\nDefault                                  : Yes\r\nAlternate group                          : 1\r\nEncoded date                             : UTC 2016-06-30 03:27:09\r\nTagged date                              : UTC 2016-06-30 03:27:09","torrent":{"xt":"urn:btih:30f20cebbacd289b721cb33e268652348e8c4e0f","amp;dn":"The+Stroller+Strategy+%282012%29+ENG+SUBS+DVDRip+AC3+x264-pong","amp;tr":["udp%3A%2F%2Ftracker.leechers-paradise.org%3A6969","udp%3A%2F%2Fzer0day.ch%3A1337","udp%3A%2F%2Fopen.demonii.com%3A1337","udp%3A%2F%2Ftracker.coppersurfer.tk%3A6969","udp%3A%2F%2Fexodus.desync.com%3A6969"],"infoHash":"30f20cebbacd289b721cb33e268652348e8c4e0f","infoHashBuffer":{"type":"Buffer","data":[48,242,12,235,186,205,40,155,114,28,179,62,38,134,82,52,142,140,78,15]},"announce":[],"urlList":[]}}